<svg xmlns="http://www.w3.org/2000/svg" width="128" height="128"><g fill="none" fill-rule="nonzero"><path fill="#000" d="M91.168 107.508c4.023 0 7.251-3.278 7.251-7.301v-35.76c0-4.024-3.228-7.302-7.251-7.302h-2.335V44.53c0-16.142-8.99-27.168-25.23-27.168h-.1c-16.39 0-25.181 10.976-25.181 27.168v3.427c0 4.172 3.377 7.599 7.599 7.599 4.172 0 7.55-3.427 7.55-7.6v-3.674c0-6.755 3.327-11.772 9.933-11.772 7.202 0 10.231 4.52 10.231 11.772v12.863H35.938c-4.023 0-7.252 3.278-7.252 7.301v35.76c0 4.024 3.229 7.302 7.252 7.302h55.23Z"/><path fill="#CBCCBE" d="M82.973 57.145h-3.477V44.282c0-10.63-5.712-17.632-16.092-17.632-9.983 0-15.745 7.648-15.745 17.632v3.675c0 .993-.794 1.738-1.738 1.738-.993 0-1.738-.745-1.738-1.738V44.53c0-13.013 6.407-21.357 19.37-21.357 13.162 0 19.42 8.592 19.42 21.357v12.615Z"/><path fill="#666660" d="M91.168 101.647h-55.23c-.795 0-1.39-.645-1.39-1.44v-35.76c0-.795.595-1.44 1.39-1.44h55.23c.795 0 1.44.645 1.44 1.44v35.76c0 .795-.645 1.44-1.44 1.44Z"/></g></svg>
